name D:\school\WTK\thesis\model\3dpredictsim\Results\Batchsim_tmt_linear_v2\Pog_s1_tmt_bCst_d00_k800_ig24.mot
datacolumns 128
datarows 4
range 0.53390540 0.56593972
endheader
time	pelvis_tilt	pelvis_list	pelvis_rotation	pelvis_tx	pelvis_ty	pelvis_tz	hip_flexion_l	hip_adduction_l	hip_rotation_l	hip_flexion_r	hip_adduction_r	hip_rotation_r	knee_angle_l	knee_angle_r	ankle_angle_l	ankle_angle_r	subtalar_angle_l	subtalar_angle_r	tmt_angle_l	tmt_angle_r	mtp_angle_l	mtp_angle_r	lumbar_extension	lumbar_bending	lumbar_rotation	arm_flex_l	arm_add_l	arm_rot_l	arm_flex_r	arm_add_r	arm_rot_r	elbow_flex_l	elbow_flex_r	pro_sup_l	pro_sup_r	glut_med1_l/activation	glut_med2_l/activation	glut_med3_l/activation	glut_min1_l/activation	glut_min2_l/activation	glut_min3_l/activation	semimem_l/activation	semiten_l/activation	bifemlh_l/activation	bifemsh_l/activation	sar_l/activation	add_long_l/activation	add_brev_l/activation	add_mag1_l/activation	add_mag2_l/activation	add_mag3_l/activation	tfl_l/activation	pect_l/activation	grac_l/activation	glut_max1_l/activation	glut_max2_l/activation	glut_max3_l/activation	iliacus_l/activation	psoas_l/activation	quad_fem_l/activation	gem_l/activation	peri_l/activation	rect_fem_l/activation	vas_med_l/activation	vas_int_l/activation	vas_lat_l/activation	med_gas_l/activation	lat_gas_l/activation	soleus_l/activation	tib_post_l/activation	flex_dig_l/activation	flex_hal_l/activation	tib_ant_l/activation	per_brev_l/activation	per_long_l/activation	per_tert_l/activation	ext_dig_l/activation	ext_hal_l/activation	ercspn_l/activation	intobl_l/activation	extobl_l/activation	glut_med1_r/activation	glut_med2_r/activation	glut_med3_r/activation	glut_min1_r/activation	glut_min2_r/activation	glut_min3_r/activation	semimem_r/activation	semiten_r/activation	bifemlh_r/activation	bifemsh_r/activation	sar_r/activation	add_long_r/activation	add_brev_r/activation	add_mag1_r/activation	add_mag2_r/activation	add_mag3_r/activation	tfl_r/activation	pect_r/activation	grac_r/activation	glut_max1_r/activation	glut_max2_r/activation	glut_max3_r/activation	iliacus_r/activation	psoas_r/activation	quad_fem_r/activation	gem_r/activation	peri_r/activation	rect_fem_r/activation	vas_med_r/activation	vas_int_r/activation	vas_lat_r/activation	med_gas_r/activation	lat_gas_r/activation	soleus_r/activation	tib_post_r/activation	flex_dig_r/activation	flex_hal_r/activation	tib_ant_r/activation	per_brev_r/activation	per_long_r/activation	per_tert_r/activation	ext_dig_r/activation	ext_hal_r/activation	ercspn_r/activation	intobl_r/activation	extobl_r/activation	
          0.53390540	         -2.91476839	         -1.07844345	         -4.73008935	          0.66738175	          0.87192671	          0.00192638	         27.02278268	         -0.46443465	         -1.58442797	        -17.45555735	          1.38704715	          6.38282665	         -8.64918123	         -6.56254279	          6.21066169	         -8.71348368	          4.03314247	          8.94138934	          0.04319896	          1.30441532	         -0.09749628	         26.59469158	          0.62136007	          3.12492173	          1.63623443	         -8.81255717	        -13.45112990	         14.53197948	          4.14893797	        -13.48392321	         13.46057620	         16.13002310	         24.85891269	         86.51662706	         86.51662706	          0.12434817	          0.05000147	          0.09591518	          0.05000048	          0.05000065	          0.05000431	          0.05889829	          0.05889824	          0.05889833	          0.05000095	          0.05000435	          0.05889023	          0.05916103	          0.14264843	          0.14190956	          0.12469273	          0.05000369	          0.05002997	          0.05714552	          0.06937777	          0.08664307	          0.12339113	          0.05000054	          0.05000051	          0.15258124	          0.05000350	          0.05951425	          0.05000352	          0.10973535	          0.13041518	          0.08348948	          0.05889838	          0.05889832	          0.05889841	          0.05000029	          0.05000300	          0.05568543	          0.48403200	          0.27923137	          0.16850643	          0.24319801	          0.51233330	          0.27918353	          0.05000057	          0.13358923	          0.13358953	          0.29233975	          0.08945104	          0.08065429	          0.26603586	          0.15737039	          0.09021500	          0.05000165	          0.05000031	          0.05000026	          0.05000037	          0.09411534	          0.08479498	          0.05000130	          0.05000142	          0.05000346	          0.05000134	          0.21911937	          0.05805400	          0.05000187	          0.05000583	          0.05000363	          0.05000301	          0.30613547	          0.57035169	          0.05000083	          0.05000121	          0.06937674	          0.22325911	          0.09837237	          0.07860908	          0.08765591	          0.17111461	          0.24604592	          0.20002822	          0.18592056	          0.18988743	          0.24196151	          0.05000003	          0.09772723	          0.15715812	          0.05000026	          0.05000007	          0.05000025	          0.05000002	          0.05000006	          0.05000009	
          0.54458351	         -2.89575465	         -1.11898810	         -4.88087176	          0.68411595	          0.87066107	          0.00177668	         26.46636118	         -0.30553038	         -1.35617234	        -17.19358716	          1.26153390	          6.11207743	         -8.70731183	         -8.80906429	          5.60524866	         -9.39454463	          3.60090951	          9.99713549	          0.05955684	          1.17786129	         -0.08218257	         27.30146046	          0.83590308	          2.93010308	          1.68760159	         -9.94901263	        -13.45556193	         14.39719764	          3.90463840	        -13.51885877	         13.75583201	         16.15782086	         25.67647146	         86.51662706	         86.51662706	          0.10556167	          0.05006026	          0.13772358	          0.05889814	          0.05294276	          0.05000211	          0.05000004	          0.05000015	          0.05000007	          0.05000014	          0.05000178	          0.05000128	          0.05022336	          0.21096998	          0.20811106	          0.13670012	          0.05000069	          0.05000254	          0.05000042	          0.05889842	          0.07355377	          0.15899946	          0.05000031	          0.05000041	          0.24561238	          0.10871608	          0.14046121	          0.07095364	          0.28594564	          0.30116005	          0.23680390	          0.05000001	          0.05000002	          0.05000000	          0.05000020	          0.05000370	          0.05000048	          0.57487685	          0.31087930	          0.18290822	          0.46892120	          0.55912096	          0.29725486	          0.05000004	          0.11340646	          0.11340672	          0.24817292	          0.07593674	          0.06846906	          0.22584313	          0.13359483	          0.07658532	          0.05000229	          0.05000029	          0.05000035	          0.05000027	          0.07989673	          0.14919882	          0.17227350	          0.10248255	          0.05000904	          0.05000157	          0.18601473	          0.09691744	          0.05000512	          0.05000366	          0.05000213	          0.05000228	          0.25988431	          0.48418264	          0.05548712	          0.05889958	          0.05889844	          0.18952897	          0.13358778	          0.13698469	          0.11178173	          0.14526248	          0.20887313	          0.16980781	          0.15783165	          0.16119953	          0.20540601	          0.05000003	          0.08296270	          0.13341666	          0.05000021	          0.05000015	          0.05000023	          0.05000183	          0.07549610	          0.05557832	
          0.55526162	         -2.87058213	         -1.14487304	         -5.00991010	          0.70106903	          0.86922890	          0.00163946	         25.79094586	         -0.17403381	         -1.08827559	        -16.83630819	          1.13042163	          5.83266693	         -9.28955249	        -11.24056103	          4.94108620	        -10.01863964	          3.14749007	         11.02085728	         -0.04930579	          0.99675181	         -0.13711661	         27.53625269	          1.06380401	          2.70742532	          1.72852481	        -11.08798792	        -13.47096170	         14.31930368	          3.60021079	        -13.56022499	         14.00521229	         16.18131852	         26.49555207	         86.51662706	         86.51662706	          0.26124037	          0.18158117	          0.29019990	          0.05000062	          0.05000046	          0.25761541	          0.07926689	          0.05000053	          0.07699625	          0.05000019	          0.05000134	          0.06938070	          0.08987815	          0.17909678	          0.17667020	          0.13780598	          0.05000130	          0.06937878	          0.05000834	          0.05000047	          0.06244139	          0.13497803	          0.05409152	          0.05000247	          0.20850515	          0.09229139	          0.21068556	          0.06023392	          0.24274479	          0.25566059	          0.20102742	          0.05889843	          0.05889847	          0.05889841	          0.05427375	          0.05889848	          0.05889849	          0.48802407	          0.27949703	          0.15527476	          0.39807636	          0.58271239	          0.25234548	          0.05000003	          0.09627294	          0.09627315	          0.25590794	          0.06446419	          0.05812478	          0.19172286	          0.11341130	          0.06501482	          0.05000307	          0.05000050	          0.05000068	          0.05000014	          0.06782623	          0.15846595	          0.32190910	          0.09352137	          0.05890092	          0.12111047	          0.15791159	          0.08227696	          0.05000154	          0.05002582	          0.05007876	          0.05889611	          0.22062082	          0.42227723	          0.05000532	          0.05000182	          0.05000019	          0.16089478	          0.11340538	          0.11628906	          0.09489377	          0.12331612	          0.17731644	          0.14415311	          0.13398636	          0.13684558	          0.17437324	          0.05000738	          0.07045413	          0.14372755	          0.05000045	          0.16184377	          0.05000446	          0.05000029	          0.06409011	          0.06051045	
          0.56593972	         -2.84230636	         -1.15615303	         -5.11441933	          0.71802702	          0.86761878	          0.00150610	         24.99559165	         -0.04690192	         -0.80139841	        -16.37996435	          0.99861299	          5.54847553	         -9.89228112	        -13.84181709	          4.42545397	        -10.46279993	          2.66614557	         11.97489057	         -0.01808419	          0.75455397	         -0.14654816	         27.03489285	          1.28531089	          2.45933912	          1.75874346	        -12.18418327	        -13.49797477	         14.32545443	          3.27039632	        -13.60797562	         14.21959116	         16.17303517	         27.30486973	         86.51662706	         86.51662706	          0.31625343	          0.31546348	          0.38927905	          0.19926222	          0.16809828	          0.21870890	          0.06729159	          0.09126189	          0.07041557	          0.07941493	          0.05000230	          0.05889872	          0.07629936	          0.15203896	          0.18354932	          0.16627595	          0.05000035	          0.05889764	          0.08172691	          0.22026560	          0.17125992	          0.17480498	          0.05000026	          0.05000024	          0.17700414	          0.07834845	          0.17886715	          0.05113374	          0.20607079	          0.21703529	          0.17065610	          0.05000005	          0.05000011	          0.05000001	          0.05000000	          0.05000021	          0.05000016	          0.62444194	          0.30301266	          0.15511731	          0.64838306	          0.64570961	          0.42502728	          0.05000021	          0.08172796	          0.08172813	          0.21724530	          0.05472492	          0.05000004	          0.16275820	          0.09627712	          0.05519243	          0.05001835	          0.05000077	          0.05000060	          0.05000060	          0.05889508	          0.18072473	          0.31674935	          0.07939311	          0.05000572	          0.10281359	          0.13405433	          0.07611370	          0.05000151	          0.05000081	          0.05000054	          0.05000059	          0.18728929	          0.37555271	          0.05000007	          0.05000043	          0.05000034	          0.13658668	          0.09627206	          0.09872007	          0.08055719	          0.10468543	          0.15052736	          0.12237435	          0.11374371	          0.11617114	          0.14802901	          0.08818057	          0.08893369	          0.12201315	          0.10714539	          0.22226086	          0.10643328	          0.08695521	          0.05440733	          0.05136851	
